<?xml version="1.0" encoding="UTF-8" standalone="no"?>
<!-- Created with Inkscape (http://www.inkscape.org/) -->

<svg
   width="2000"
   height="2000"
   viewBox="0 0 2000 2000"
   version="1.1"
   id="svg1"
   xml:space="preserve"
   inkscape:version="1.4 (86a8ad7, 2024-10-11)"
   sodipodi:docname="canyon rock.svg"
   inkscape:export-filename="Vine.png"
   inkscape:export-xdpi="96"
   inkscape:export-ydpi="96"
   xmlns:inkscape="http://www.inkscape.org/namespaces/inkscape"
   xmlns:sodipodi="http://sodipodi.sourceforge.net/DTD/sodipodi-0.dtd"
   xmlns="http://www.w3.org/2000/svg"
   xmlns:svg="http://www.w3.org/2000/svg"><sodipodi:namedview
     id="namedview1"
     pagecolor="#ffffff"
     bordercolor="#000000"
     borderopacity="0.25"
     inkscape:showpageshadow="2"
     inkscape:pageopacity="0.0"
     inkscape:pagecheckerboard="0"
     inkscape:deskcolor="#d1d1d1"
     inkscape:document-units="mm"
     inkscape:zoom="0.14571259"
     inkscape:cx="-964.22691"
     inkscape:cy="504.41763"
     inkscape:window-width="1920"
     inkscape:window-height="1009"
     inkscape:window-x="1912"
     inkscape:window-y="-8"
     inkscape:window-maximized="1"
     inkscape:current-layer="svg1"
     showguides="false" /><defs
     id="defs1" /><rect
     style="fill:#4a57c7;fill-opacity:1;stroke-width:0.363789"
     id="rect1"
     width="2000.3403"
     height="2000.4376"
     x="2.2821613e-08"
     y="0"
     inkscape:label="Background" /><g
     inkscape:label="Cliffs"
     inkscape:groupmode="layer"
     id="layer1"><path
       id="path51"
       style="opacity:1;fill:#fafafa;fill-opacity:1;stroke-width:0.798217"
       d="m 33.47921,770.17256 c -17.682812,0.0102 -33.57162391,0.34046 -33.57162391,0.34046 l 0.0387316,286.44608 0.0043934,1.1619 -0.03873159,0.589 0.0040956,0.7359 0.06189231,58.6326 -0.06524819,7.778 v 61.81 c 0.87606911,0.2115 -0.55095033,-0.1237 0.36868083,0.041 9.99442195,1.7881 22.80537795,0.7361 30.39092395,1.3837 14.58927,1.2456 44.146698,-4.9584 44.352767,-5.0017 l -4.354787,-19.1786 1.075456,-39.0423 3.979874,0.1693 71.017906,-11.7085 1.5112,-15.6796 -1.40108,-42.3092 h -16.92049 v 0.6187 h -5.58178 c 0.72134,-2.4337 3.71208,-12.6633 5.09465,-21.8474 0.93758,-6.2282 2.84106,-10.238 5.49107,-10.2476 7.04332,-0.025 10.42265,-1.4243 10.42265,-1.4243 0,0 2.27991,-27.84132 2.27991,-37.62782 0,-9.78649 -2.27991,-21.09114 -2.27991,-21.09114 l 14.98246,-3.50543 -1.42258,-42.85318 c 0,0 4.4231,-27.54093 3.37687,-27.93834 -1.04624,-0.39741 -24.10209,3.50614 -24.10209,3.50614 l 1.95428,-29.93691 c 0,0 -2.262,-28.59623 -3.90856,-30.09634 -1.64656,-1.50011 -53.090134,-3.50544 -53.090134,-3.50544 l -2.671598,-47.0295 c 0,0 -4.42275,-11.06266 -8.860067,-12.38364 -2.218658,-0.6605 -20.456317,-0.81584 -38.139131,-0.80564 z"
       inkscape:label="Cliff Face"
       sodipodi:nodetypes="sccccccccssccccccccccsscscccsccsccss" /><path
       id="path28"
       style="opacity:1;fill:#fafafa;fill-opacity:1;stroke-width:1.31639"
       inkscape:label="Cliff Ledge"
       d="m -0.45776977,1738.7719 -0.14561762,15.6374 -0.0139862,65.1371 0.27421879,43.234 -0.33109939,6.7326 0.0803168,61.1547 -0.33101137,25.655 -0.0803169,40.3559 8.7690468,-38.7567 19.0247169,3.1359 7.717957,-46.827 5.111142,3.0492 35.416992,-59.3614 33.440211,-7.9554 10.3504,8.1912 33.79517,-17.1051 16.51211,7.8114 61.61026,-48.8912 11.98654,3.6732 24.79227,-32.6708 -0.208,-0.023 9.70378,-7.7006 21.83125,2.3838 9.09107,-26.9221 0.93752,-0.7438 z"
       sodipodi:nodetypes="cccccccccccccccccccccccccc" /><path
       id="rect61"
       style="opacity:1;fill:#fafafa;fill-opacity:1;stroke-width:0.275912"
       d="m 42.700659,1253.2647 c 33.842,2.9139 53.1031,18.02 66.805301,25.52 3.0353,1.6613 -1.4324,20.6044 -8.5006,55.1641 10.5735,6.6087 19.4791,12.3481 19.6498,13.0565 0.099,0.4087 -2.8044,8.675 -7.028,20.3686 15.0604,9.024 31.5944,19.2749 31.8309,21.0901 0.1219,0.9354 -4.2436,13.3553 -10.2685,29.9379 12.3015,7.4798 23.7623,14.8371 24.3606,16.7034 0.386,1.2042 -4.1182,14.3567 -10.3697,31.6237 14.975,11.1342 29.2324,22.1413 29.374,23.8483 0.1877,2.2634 -22.8154,50.257 -40.6136,87.0525 l 20.773,15.1331 -60.053701,90.9831 -0.058,0.3211 -97.1055004,0.8424 v -382.3091 c 1.9722,-3.2631 24.1486004,-30.5321 41.2081004,-49.3357 z"
       inkscape:label="Cliff Diagonal"
       sodipodi:nodetypes="sscscscscsccccccss" /></g><g
     inkscape:groupmode="layer"
     id="layer2"
     inkscape:label="Vines"><path
       id="rect77"
       style="opacity:1;fill:#fafafa;fill-opacity:1;stroke-width:1.88976"
       d="m 475.95622,132.79047 c 0,0 282.81614,92.94127 429.76287,107.59817 217.59291,21.70335 439.00731,1.62424 655.30871,-30.49069 149.4903,-22.19528 439.4828,-111.421612 439.4828,-111.421612 V 287.73361 c 0,0 -284.6647,55.03001 -428.9548,59.90242 C 1350.4136,355.1036 1126.0675,345.4416 909.43491,300.38697 759.73593,269.25301 476.81408,147.90355 476.81408,147.90355 Z"
       sodipodi:nodetypes="caaccaacc"
       inkscape:label="Vine" /><path
       id="path1"
       style="opacity:1;fill:#fafafa;fill-opacity:1;stroke-width:1.88976"
       d="m 475.95623,578.87409 c 0,0 280.26926,128.69743 429.76287,128.22236 224.3046,-0.71282 420.658,-171.72447 643.5931,-196.48311 149.903,-16.64784 451.1984,33.94662 451.1984,33.94662 v 189.25727 c 0,0 -291.0454,-84.64381 -440.6704,-85.46581 C 1339.4583,647.14072 1128.381,792.23986 909.43492,767.09478 752.88544,749.1157 475.74177,578.97474 475.74177,578.97474 Z"
       sodipodi:nodetypes="caaccaacc"
       inkscape:label="Vine" /></g></svg>
