<?xml version="1.0" encoding="UTF-8" standalone="no"?>
<!-- Created with Inkscape (http://www.inkscape.org/) -->

<svg
   width="2000"
   height="2000"
   viewBox="0 0 2000 2000"
   version="1.1"
   id="svg1"
   xml:space="preserve"
   inkscape:version="1.4 (86a8ad7, 2024-10-11)"
   sodipodi:docname="canyon rock.svg"
   inkscape:export-filename="Vine.png"
   inkscape:export-xdpi="96"
   inkscape:export-ydpi="96"
   xmlns:inkscape="http://www.inkscape.org/namespaces/inkscape"
   xmlns:sodipodi="http://sodipodi.sourceforge.net/DTD/sodipodi-0.dtd"
   xmlns="http://www.w3.org/2000/svg"
   xmlns:svg="http://www.w3.org/2000/svg"><sodipodi:namedview
     id="namedview1"
     pagecolor="#ffffff"
     bordercolor="#000000"
     borderopacity="0.25"
     inkscape:showpageshadow="2"
     inkscape:pageopacity="0.0"
     inkscape:pagecheckerboard="0"
     inkscape:deskcolor="#d1d1d1"
     inkscape:document-units="mm"
     inkscape:zoom="0.29142518"
     inkscape:cx="682.8511"
     inkscape:cy="835.54895"
     inkscape:window-width="1920"
     inkscape:window-height="1009"
     inkscape:window-x="1912"
     inkscape:window-y="-8"
     inkscape:window-maximized="1"
     inkscape:current-layer="layer1"
     showguides="false" /><defs
     id="defs1" /><g
     inkscape:label="Layer 1"
     inkscape:groupmode="layer"
     id="layer1"><path
       id="path51"
       style="opacity:1;fill:#7f7b79;fill-opacity:1;stroke-width:2.20993"
       d="m 92.853411,28.988281 c -48.956332,0.02823 -96.3772374,0.513672 -96.3772374,0.513672 V 822.98047 h -1.2746162 v 2.5957 h 0.6547289 v 166.92188 h -9.5828483 v 190.08205 c 2.42547,0.5857 4.6922343,1.3257 7.2383095,1.7812 27.6703865,4.9504 70.5693535,2.6445 91.5705685,4.4375 40.391604,3.4485 122.223794,-13.7278 122.794314,-13.8476 l -12.05659,-53.0977 2.97749,-108.0918 11.01861,0.4688 196.61897,-32.41605 4.18388,-43.41015 -3.87901,-117.13672 h -46.84577 v 1.71289 h -15.45364 c 1.99711,-6.73788 10.27721,-35.05934 14.10498,-60.48633 2.59577,-17.24313 7.86569,-28.3446 15.20248,-28.37109 19.5,-0.0704 28.85597,-3.94336 28.85597,-3.94336 0,0 6.31211,-77.08105 6.31211,-104.17578 0,-27.09473 -6.31211,-58.39258 -6.31211,-58.39258 l 41.48019,-9.70508 -3.93853,-118.64258 c 0,0 12.24571,-76.24934 9.34912,-77.34961 -2.89659,-1.10027 -66.72862,9.70703 -66.72862,9.70703 l 5.41059,-82.88281 c 0,0 -6.26255,-79.17104 -10.82118,-83.32422 -4.55863,-4.15318 -146.98444,-9.70508 -146.98444,-9.70508 L 222.97459,65.503906 c 0,0 -12.24475,-30.627899 -24.52983,-34.285156 -6.14254,-1.828628 -56.63501,-2.258699 -105.591349,-2.230469 z"
       inkscape:label="Cliff Face" /><path
       id="path28"
       style="opacity:1;fill:#bfb7b4;stroke-width:3.41156"
       inkscape:label="Cliff Ledge"
       d="M 1.2714844 1325.7109 L 1.7519531 1458.0273 L 0 1456.9824 L 0 1656.1738 L -3.4316406 1655.6074 L -3.4316406 1840.1875 L -3.4316406 1892.0918 L -3.4316406 2048.8457 L 21.720703 1896.2363 L 71.025391 1904.3633 L 91.027344 1783.0059 L 104.27344 1790.9082 L 196.06055 1637.0664 L 282.72461 1616.4492 L 309.54883 1637.6777 L 397.13281 1593.3477 L 439.92578 1613.5918 L 599.5957 1486.8848 L 630.66016 1496.4043 L 694.91211 1411.7344 L 694.37305 1411.6758 L 719.52148 1391.7188 L 776.09961 1397.8965 L 799.66016 1328.125 L 802.08984 1326.1973 L 1.2714844 1325.7109 z " /><path
       id="rect61"
       style="opacity:1;fill:#b9b3b0;stroke-width:0.65537"
       d="m 1914.6504,975.3203 c -80.3844,6.92137 -126.1351,42.8027 -158.6816,60.6172 -7.2097,3.9462 3.4023,48.9413 20.1914,131.0305 -25.1153,15.6976 -46.2684,29.3303 -46.6739,31.0128 -0.234,0.9709 6.6611,20.6056 16.6934,48.3813 -35.7727,21.4345 -75.0457,45.7833 -75.6074,50.0949 -0.2895,2.2219 10.0797,31.7226 24.3906,71.1112 -29.2196,17.7666 -56.4422,35.2422 -57.8633,39.6752 -0.9169,2.8603 9.7819,34.1012 24.6309,75.1154 -35.5699,26.4468 -69.4352,52.5918 -69.7715,56.6463 -0.4459,5.3764 54.1929,119.3747 96.4687,206.7745 l -49.3418,35.9455 142.6446,222.9734 0.1367,-0.095 221.2168,8.0058 9.4472,-920.1026 c -4.6845,-7.7509 -57.3597,-72.5226 -97.8808,-117.1865 z"
       inkscape:label="Cliff Diagonal" /><path
       id="rect77"
       style="opacity:1;fill:#fafafa;stroke-width:1.88976;fill-opacity:1"
       d="m 455.36775,136.22188 c 0,0 282.81614,92.94127 429.76287,107.59817 217.59288,21.70335 439.00728,1.62424 655.30868,-30.49069 149.4903,-22.19528 439.4828,-111.42161 439.4828,-111.42161 v 189.25727 c 0,0 -284.6647,55.03001 -428.9548,59.90242 -221.1422,7.46757 -445.4883,-2.19443 -662.12086,-47.24906 C 739.14746,272.68442 456.22561,151.33496 456.22561,151.33496 Z"
       sodipodi:nodetypes="caaccaacc"
       inkscape:label="Vine" /></g></svg>
